<?xml version="1.0" standalone="no"?><!DOCTYPE svg PUBLIC "-//W3C//DTD SVG 1.1//EN" "http://www.w3.org/Graphics/SVG/1.1/DTD/svg11.dtd"><svg t="1614624663140" class="icon" viewBox="0 0 1024 1024" version="1.1" xmlns="http://www.w3.org/2000/svg" p-id="37230" xmlns:xlink="http://www.w3.org/1999/xlink" width="200" height="200"><defs><style type="text/css"></style></defs><path d="M850.067375 0l-676.156233 0c-29.206928 0-52.873235 24.22487-52.873235 54.104938l0 915.765571c0 29.892344 23.666307 54.124376 52.873235 54.124376l676.156233 0c29.228411 0 52.893695-24.233054 52.893695-54.124376l0-915.765571C902.96107 24.22487 879.295786 0 850.067375 0zM345.547622 618.335723l0 110.759217-110.761263 0 0-110.759217L345.547622 618.335723zM235.716275 538.033552l0-110.764332 110.761263 0 0 110.764332L235.716275 538.033552zM347.383924 920.155306l-110.762286 0 0-110.759217 110.762286 0L347.383924 920.155306zM579.982577 622.010374l0 110.762286-110.761263 0 0-110.762286L579.982577 622.010374zM470.150207 541.731732l0-110.763309 110.761263 0 0 110.763309L470.150207 541.731732zM581.821948 923.836095l-110.762286 0 0-110.765355 110.762286 0L581.821948 923.836095zM801.50408 618.335723l0 110.759217-110.761263 0 0-110.759217L801.50408 618.335723zM691.672733 538.033552l0-110.764332 110.762286 0 0 110.764332L691.672733 538.033552zM803.344475 920.155306l-110.761263 0 0-110.759217 110.761263 0L803.344475 920.155306zM817.383237 248.496224c0 32.103068-25.420769 58.12639-56.830236 58.12639l-497.106001 0c-31.387984 0-56.806707-26.023321-56.806707-58.12639l0-66.346273c0-32.10716 25.419746-58.131505 56.806707-58.131505l497.106001 0c31.409468 0 56.830236 26.024344 56.830236 58.131505L817.383237 248.496224z" p-id="37231"></path></svg>